Coordinates
version=1
nRows=11
nColumns=40
inDegrees=yes

Units are S.I. units (second, meters, Newtons, ...)
Angles are in degrees.

endheader
time	pelvis_tilt	pelvis_list	pelvis_rotation	pelvis_tx	pelvis_ty	pelvis_tz	hip_flexion_r	hip_adduction_r	hip_rotation_r	knee_angle_r	knee_angle_r_beta	ankle_angle_r	subtalar_angle_r	mtp_angle_r	hip_flexion_l	hip_adduction_l	hip_rotation_l	knee_angle_l	knee_angle_l_beta	ankle_angle_l	subtalar_angle_l	mtp_angle_l	lumbar_extension	lumbar_bending	lumbar_rotation	arm_flex_r	arm_add_r	arm_rot_r	elbow_flex_r	pro_sup_r	wrist_flex_r	wrist_dev_r	arm_flex_l	arm_add_l	arm_rot_l	elbow_flex_l	pro_sup_l	wrist_flex_l	wrist_dev_l
     20.94000000	     -5.51565920	     -4.10905241	     -4.41200416	      1.01468239	      0.92870401	      0.40238320	     31.95483511	     -6.88800385	     -7.63104007	     67.50615410	     67.50615410	      2.48895529	    -17.00350337	      3.22899847	     15.91897965	     -5.38754429	     -7.30880502	     23.83937208	     23.83937208	     15.78394443	     -7.34010888	     -1.07517758	    -10.79569865	      3.37059325	      2.16385731	     11.52176608	    -14.41455087	      1.56886318	     64.91322238	     45.24995650	      0.00000000	      0.00000000	      7.42545779	    -16.49142525	      2.04713093	     45.91443155	     45.94109436	      0.00000000	      0.00000000
     20.95157143	     -5.48383859	     -4.04937798	     -4.48205589	      1.01334195	      0.92907262	      0.40149594	     33.13343242	     -6.84282954	     -7.54917361	     66.29172335	     66.29172335	      2.07554158	    -16.35812994	      1.71763380	     14.98248797	     -5.20385982	     -7.53890701	     23.14205642	     23.14205642	     16.01591551	     -7.00219462	     -1.37103665	    -10.87901760	      3.37991012	      1.96591495	     10.12919221	    -14.80266231	      1.14111832	     59.85351733	     45.43595540	      0.00000000	      0.00000000	      9.09185910	    -17.10428588	      2.32472774	     47.01478258	     45.98351376	      0.00000000	      0.00000000
     20.96314286	     -5.38052578	     -3.95072760	     -4.61406102	      1.01211089	      0.92949545	      0.40071453	     34.14372451	     -6.80737161	     -7.41705652	     64.95719546	     64.95719546	      2.04115160	    -15.42971889	      1.35707466	     13.91731985	     -4.99260260	     -7.92985838	     22.36350973	     22.36350973	     16.28383927	     -6.51712859	     -1.52463034	    -11.17219231	      3.35176238	      2.35896795	      8.00092577	    -15.81971176	      1.13724290	     56.68222611	     45.53629988	      0.00000000	      0.00000000	     11.00807446	    -17.38288112	      2.13512306	     48.42518157	     46.04466247	      0.00000000	      0.00000000
     20.97471429	     -5.27313826	     -3.85962492	     -4.73354717	      1.01094389	      0.92985407	      0.40001045	     35.01569838	     -6.74527873	     -7.29251498	     63.40537463	     63.40537463	      1.93707564	    -14.54428945	      0.99041623	     12.83398886	     -4.79030911	     -8.33813325	     21.54823359	     21.54823359	     16.50434364	     -5.96149267	     -1.82556550	    -11.42213522	      3.30828483	      2.62783158	      6.38526883	    -16.47672808	      0.94021392	     52.40077636	     45.68677333	      0.00000000	      0.00000000	     12.85492027	    -17.68726197	      2.16882804	     49.75018762	     46.08506703	      0.00000000	      0.00000000
     20.98628571	     -5.18632618	     -3.76111436	     -4.83239859	      1.00982622	      0.93003789	      0.39939622	     35.79109010	     -6.67357212	     -7.18569185	     61.65481681	     61.65481681	      1.85131516	    -13.81529498	      0.65879369	     11.79262996	     -4.57728021	     -8.71067667	     20.74244342	     20.74244342	     16.65661306	     -5.44251337	     -2.28215573	    -11.62858377	      3.27371393	      2.61913614	      5.30592442	    -16.76098842	      0.53781755	     47.30718380	     45.87930144	      0.00000000	      0.00000000	     14.52951603	    -18.22250311	      2.33563777	     51.00501803	     46.11406500	      0.00000000	      0.00000000
     20.99785714	     -5.31520831	     -3.74607262	     -4.79537621	      1.00868653	      0.92977426	      0.39881414	     36.65794273	     -6.55824457	     -7.26153687	     59.68736345	     59.68736345	      1.75723588	    -13.23471595	      0.76719188	     11.12862716	     -4.44948023	     -8.75943889	     20.16000913	     20.16000913	     16.93723686	     -5.11539215	     -2.46643239	    -11.59162616	      3.45179188	      1.97613147	      3.62146391	    -17.10570800	      0.43445306	     45.36414225	     45.94437491	      0.00000000	      0.00000000	     15.81521491	    -19.06358044	      2.10157079	     51.74801705	     46.15763036	      0.00000000	      0.00000000
     21.00942857	     -5.18219489	     -3.49575705	     -4.95305873	      1.00783769	      0.92993977	      0.39848225	     37.07508322	     -6.55386445	     -7.05373395	     57.31545050	     57.31545050	      1.54363307	    -12.73705479	     -0.09002138	      9.84308035	     -4.02357573	     -9.12243822	     18.93322624	     18.93322624	     16.49873052	     -4.79018977	     -4.00173075	    -11.75493098	      3.18469506	      1.48495706	      5.24771309	    -16.18505908	     -1.88015414	     34.73145577	     46.44750002	      0.00000000	      0.00000000	     16.51998516	    -20.01668522	      2.49796734	     54.37154024	     46.22436141	      0.00000000	      0.00000000
     21.02100000	     -5.19391924	     -3.36978297	     -5.03722982	      1.00694037	      0.92961272	      0.39826369	     37.56754304	     -6.46117849	     -7.02385174	     54.83162960	     54.83162960	      1.59988179	    -12.17707881	      0.01054874	      8.93171104	     -3.79640183	     -9.45975943	     18.15955183	     18.15955183	     16.68145103	     -4.32236916	     -4.26179352	    -11.87751774	      3.16191885	      1.71148434	      3.26038302	    -16.81211975	     -2.16440847	     32.68698439	     46.52355141	      0.00000000	      0.00000000	     18.08174145	    -20.10824284	      2.05788657	     56.00413260	     46.30745787	      0.00000000	      0.00000000
     21.03257143	     -5.23771087	     -3.23451240	     -5.10457839	      1.00618460	      0.92920894	      0.39821883	     37.89617727	     -6.34860096	     -7.04664001	     52.00455063	     52.00455063	      1.69403686	    -11.66108593	      0.14190153	      7.99486059	     -3.55140732	     -9.72196786	     17.27883614	     17.27883614	     16.84160756	     -3.77603525	     -4.54057739	    -11.96462301	      3.13791371	      1.82509587	      1.42938341	    -17.29554140	     -2.43288184	     30.72628559	     46.60151254	      0.00000000	      0.00000000	     19.45338233	    -20.31726957	      1.71993757	     57.61972908	     46.37587749	      0.00000000	      0.00000000
     21.04414286	     -5.26593574	     -3.00511614	     -5.18124810	      1.00558860	      0.92857320	      0.39834297	     38.09377767	     -6.30032227	     -7.06674232	     48.97995277	     48.97995277	      1.82081177	    -11.16037823	      0.16334466	      7.05798743	     -3.21917915	    -10.06982365	     16.43796505	     16.43796505	     16.96714290	     -3.21106851	     -5.01638652	    -12.04144538	      2.95399819	      1.97186068	     -0.31359641	    -17.64179179	     -2.84693681	     28.59726319	     46.69934760	      0.00000000	      0.00000000	     20.74364633	    -20.59034428	      1.38052660	     59.64788545	     46.45114480	      0.00000000	      0.00000000
     21.05571429	     -5.35516105	     -2.76321640	     -5.20957150	      1.00508110	      0.92774571	      0.39855518	     38.17376569	     -6.26991360	     -7.21156380	     45.67345946	     45.67345946	      1.85181275	    -10.60357493	      0.09983558	      6.18609819	     -2.88262758	    -10.37249957	     15.58613402	     15.58613402	     17.01641553	     -2.59931535	     -5.65948192	    -12.05305621	      2.76447233	      1.95100315	     -1.94922691	    -17.83936754	     -3.49927961	     26.58271004	     46.81355387	      0.00000000	      0.00000000	     21.71253489	    -20.94912163	      1.00176744	     62.06510122	     46.53706763	      0.00000000	      0.00000000
